# xmcd
#
# Track frame offsets:
#	150
#	17584
#	29874
#	44976
#	61341
#	83289
#	102934
#	120006
#	141589
#	153600
#	164530
#	174728
#
# Disc length: 2487 seconds
#
# Revision: 0
# Processed by: cddbd v1.5.1PL2 Copyright (c) Steve Scherf et al.
# Submitted via: dBpowerAMP V4.0
#
DISCID=a209b50c
DTITLE=Kenny Rogers - Lady
DYEAR=1900
DGENRE=Country
TTITLE0=Lady
TTITLE1=It had to be you
TTITLE2=Misty
TTITLE3=Evergreen
TTITLE4=Have I told you lately that I love you?
TTITLE5=I only have eyes for you
TTITLE6=When a man loves a woman
TTITLE7=Alwais and forever
TTITLE8=Love is a many splendored thing
TTITLE9=She even woke me up to say goodbye
TTITLE10=Goodtime liberator
TTITLE11=Always
EXTD=
EXTT0=
EXTT1=
EXTT2=
EXTT3=
EXTT4=
EXTT5=
EXTT6=
EXTT7=
EXTT8=
EXTT9=
EXTT10=
EXTT11=
PLAYORDER=
